<?xml version="1.0" encoding="utf-8"?>
<!-- Generator: Adobe Illustrator 16.0.0, SVG Export Plug-In . SVG Version: 6.00 Build 0)  -->
<!DOCTYPE svg PUBLIC "-//W3C//DTD SVG 1.1//EN" "http://www.w3.org/Graphics/SVG/1.1/DTD/svg11.dtd">
<svg version="1.1" id="Layer_1" xmlns="http://www.w3.org/2000/svg" xmlns:xlink="http://www.w3.org/1999/xlink" x="0px" y="0px"
	 width="31px" height="38px" viewBox="0 0 31 38" enable-background="new 0 0 31 38" xml:space="preserve">
<path fill="#FFFFFF" d="M0.228,0c5.142,5.602,10.195,11.107,15.275,16.641c5.086-5.541,10.134-11.04,15.27-16.635
	c0,10.064,0,19.982,0,29.948c-2.012,0-4.029,0-6.118,0c0-4.827,0-9.65,0-14.473c-0.044-0.019-0.088-0.038-0.133-0.056
	c-2.986,3.351-5.972,6.7-9.019,10.118c-3.024-3.393-6.025-6.758-9.125-10.233c0,4.952,0,9.771,0,14.641c-2.086,0-4.102,0-6.15,0
	C0.228,20.012,0.228,10.089,0.228,0H0v38h0.228v-3.326h30.545V38H31V0H0.228z"/>
</svg>
